<svg width="41" height="40" viewBox="0 0 41 40" fill="none" xmlns="http://www.w3.org/2000/svg">
<path d="M15.8414 14.5667H15.2718H11.4746V18.0502H15.5566C16.2844 18.0502 16.9173 17.8602 16.9173 16.1818C16.9173 14.5034 15.8414 14.5667 15.8414 14.5667Z" fill="black"/>
<path d="M15.8414 20.5845H11.4746V25.0181H15.3034C15.3667 25.0181 15.4617 25.0181 15.5882 25.0181C16.2211 25.0181 17.4235 24.7647 17.4235 22.8646C17.4552 20.6161 15.8414 20.5845 15.8414 20.5845Z" fill="black"/>
<path d="M30.2698 0H10.3978C4.89191 0 0.39856 4.49692 0.39856 10.0072V29.9267C0.39856 35.4053 4.89191 39.9022 10.3978 39.9022H30.3015C35.8074 39.9022 40.3008 35.4053 40.3008 29.895V10.0072C40.2691 4.49692 35.7758 0 30.2698 0ZM23.8146 12.6674H30.4597V14.2508H23.8146V12.6674ZM20.7136 23.0863C20.7136 28.0265 15.8405 28.1849 15.8405 28.1849H11.3471H11.2206H7.99295V11.7173H11.1889H11.3155H15.8088C18.2454 11.7173 20.1756 13.1107 20.1756 16.0242C20.1756 18.9377 17.834 19.0961 17.834 19.0961C20.9351 19.0644 20.7136 23.0863 20.7136 23.0863ZM32.6431 22.8013H24.6373C24.6373 25.9681 27.3587 25.7148 27.3587 25.7148C29.9218 25.7148 29.8268 24.068 29.8268 24.068H32.5482C32.5482 28.5016 27.2637 28.3116 27.2637 28.3116C20.9351 28.3116 21.3464 22.0729 21.3464 22.0729C21.3464 22.0729 21.3464 15.8025 27.2637 15.8025C33.4975 15.7709 32.6431 22.8013 32.6431 22.8013Z" fill="black"/>
<path d="M27.3263 18.0815C24.9531 18.0815 24.605 20.5833 24.605 20.5833H29.6679C29.6679 20.5833 29.6996 18.0815 27.3263 18.0815Z" fill="black"/>
</svg>
