<svg width="41" height="40" viewBox="0 0 41 40" fill="none" xmlns="http://www.w3.org/2000/svg">
<path d="M40.473 11.7773C40.4507 10.1019 40.1365 8.44316 39.5446 6.87527C39.0313 5.55276 38.2473 4.35168 37.2428 3.34877C36.2382 2.34587 35.0351 1.5632 33.7104 1.05076C32.1601 0.469759 30.5222 0.155603 28.8666 0.121667C26.735 0.0265456 26.0592 0 20.6482 0C15.2372 0 14.5437 1.48334e-07 12.4276 0.121667C10.7727 0.155853 9.13568 0.470005 7.58606 1.05076C6.26114 1.56284 5.05788 2.34539 4.05326 3.34834C3.04864 4.35129 2.26478 5.55255 1.75185 6.87527C1.16872 8.42183 0.85472 10.0565 0.823426 11.7087C0.728146 13.839 0.699341 14.5137 0.699341 19.9157C0.699341 25.3177 0.699341 26.0079 0.823426 28.1227C0.856663 29.7773 1.16909 31.4099 1.75185 32.9606C2.26564 34.2829 3.05008 35.4837 4.05503 36.4862C5.05999 37.4887 6.26337 38.2709 7.58828 38.7829C9.13365 39.3872 10.771 39.7239 12.4298 39.7783C14.5636 39.8734 15.2395 39.9022 20.6504 39.9022C26.0614 39.9022 26.755 39.9022 28.8711 39.7783C30.5266 39.7458 32.1646 39.4324 33.7148 38.8515C35.0392 38.3384 36.242 37.5555 37.2465 36.5527C38.251 35.5499 39.0352 34.3491 39.549 33.0269C40.1318 31.4785 40.4442 29.8459 40.4775 28.189C40.5727 26.061 40.6015 25.3863 40.6015 19.9821C40.5971 14.5801 40.5971 13.8943 40.473 11.7773ZM20.6349 30.1313C14.9758 30.1313 10.3913 25.5544 10.3913 19.9046C10.3913 14.2549 14.9758 9.67802 20.6349 9.67802C23.3517 9.67802 25.9572 10.7555 27.8783 12.6733C29.7994 14.5912 30.8786 17.1924 30.8786 19.9046C30.8786 22.6169 29.7994 25.2181 27.8783 27.136C25.9572 29.0538 23.3517 30.1313 20.6349 30.1313ZM31.2863 11.6844C29.9635 11.6844 28.8977 10.6182 28.8977 9.29975C28.8977 8.98674 28.9594 8.67679 29.0794 8.3876C29.1994 8.09842 29.3753 7.83565 29.597 7.61432C29.8187 7.39299 30.0819 7.21741 30.3715 7.09763C30.6612 6.97784 30.9717 6.91619 31.2852 6.91619C31.5987 6.91619 31.9092 6.97784 32.1989 7.09763C32.4885 7.21741 32.7517 7.39299 32.9734 7.61432C33.1951 7.83565 33.371 8.09842 33.491 8.3876C33.611 8.67679 33.6727 8.98674 33.6727 9.29975C33.6727 10.6182 32.6047 11.6844 31.2863 11.6844Z" fill="black"/>
<path d="M20.6506 26.602C24.3235 26.602 27.301 23.6245 27.301 19.9516C27.301 16.2787 24.3235 13.3013 20.6506 13.3013C16.9777 13.3013 14.0002 16.2787 14.0002 19.9516C14.0002 23.6245 16.9777 26.602 20.6506 26.602Z" fill="black"/>
</svg>
