<svg width="121" height="159" viewBox="0 0 121 159" fill="none" xmlns="http://www.w3.org/2000/svg">
<g clip-path="url(#clip0)">
<path d="M96.8525 58.3584C96.8525 85.0699 75.1661 106.725 48.4161 106.725C21.6864 106.725 0 85.0699 0 58.3584C0 31.6468 21.6864 10.0117 48.4363 10.0117C75.1862 10.0117 96.8525 31.6468 96.8525 58.3584Z" fill="#E3000B"/>
<path d="M115.069 97.8013C114.524 96.0286 113.859 94.276 113.112 92.5839L110.026 85.6542C107.383 79.7317 106.031 73.3258 106.031 66.8393V50.5223L111.236 48.7899C112.749 48.2863 113.677 46.7553 113.415 45.1639L113.274 44.338C112.144 37.5694 105.87 32.8959 99.0513 33.742L98.3452 33.8226C93.3826 34.4471 88.4401 32.352 85.4343 28.3433L82.9328 25.0195C84.002 21.3129 84.0827 17.3847 83.0336 13.658L82.3477 11.2205C80.5927 4.93547 74.0565 1.26918 67.7624 3.02175C61.4683 4.77431 57.7967 11.3011 59.5518 17.5862L60.2377 20.0236C61.4683 24.4151 62.9208 29.9146 67.722 31.0225C78.4946 33.5204 71.9584 37.4284 71.9584 37.4284L65.4223 42.8674C59.7737 47.5611 57.1512 54.9742 58.6037 62.1658L63.2435 74.3129C63.7075 75.5417 65.16 76.1058 66.3502 75.5216L74.6012 71.3919L75.9528 75.4208C76.7194 77.7374 76.4773 80.2756 75.3072 82.4311C69.3763 93.3897 68.9123 105.92 69.114 112.043L115.069 97.8013Z" fill="white"/>
<path d="M69.1141 114.703C68.5694 114.703 68.0449 114.541 67.6011 114.219C66.9354 113.736 66.5319 112.99 66.5117 112.164C66.2898 105.496 66.8547 92.6041 73.0076 81.2225C73.8347 79.6915 74.0162 77.8785 73.4716 76.2871L73.0883 75.1187L67.5406 77.8986C66.31 78.503 64.8777 78.5835 63.6068 78.0799C62.3359 77.5763 61.3272 76.5691 60.8228 75.2798L56.183 63.1328C56.1224 62.9917 56.0821 62.8507 56.0619 62.7097C54.4279 54.5714 57.3934 46.2114 63.7682 40.8933L70.3043 35.4543C70.4052 35.3737 70.5262 35.2932 70.6271 35.2327C70.7481 35.1521 70.8894 35.0514 71.0104 34.9507C70.4859 34.6284 69.3562 34.1248 67.1573 33.6212C60.9439 32.1909 59.1283 25.7447 57.817 21.051L57.0706 18.3517C56.0216 14.6451 56.5057 10.7572 58.3819 7.39311C60.2782 4.02899 63.3647 1.61166 67.0766 0.584291C74.7425 -1.57116 82.7311 2.94119 84.8897 10.5961L85.5756 13.0336C86.6044 16.72 86.6851 20.6683 85.7975 24.536L87.5324 26.8526C89.9734 30.0959 93.9879 31.8082 98.0226 31.3046L98.7286 31.224C106.98 30.1966 114.504 35.7968 115.856 43.9754L115.997 44.8013C116.481 47.682 114.807 50.4216 112.063 51.3483L108.634 52.4764V66.8998C108.634 73.064 109.905 79.0267 112.406 84.647L115.493 91.5767C116.279 93.3696 116.986 95.2228 117.571 97.0761C117.994 98.4459 117.228 99.9165 115.856 100.34L69.9009 114.642C69.6386 114.662 69.3764 114.703 69.1141 114.703ZM74.6013 68.8135C74.9442 68.8135 75.2872 68.8739 75.6099 69.0149C76.316 69.297 76.8607 69.8811 77.0826 70.6063L78.4342 74.6352C79.4227 77.5965 79.1201 80.9203 77.6071 83.7204C72.9471 92.3422 71.8375 102.012 71.7165 108.558L111.72 96.1092C111.398 95.2833 111.075 94.4574 110.712 93.6516L107.625 86.7219C104.821 80.4368 103.409 73.7489 103.409 66.8595V50.5425C103.409 49.4144 104.135 48.4273 105.204 48.0647L110.409 46.3323C110.712 46.2316 110.893 45.9294 110.833 45.6071L110.691 44.7812C109.784 39.3825 104.821 35.6759 99.3742 36.3608L98.6681 36.4414C92.7775 37.1666 86.907 34.6888 83.3363 29.9549L80.8348 26.631C80.3507 25.9864 80.1893 25.1202 80.4112 24.3346C81.3594 21.0107 81.3997 17.5862 80.5121 14.4034L79.8262 11.9659C78.4544 7.09094 73.3505 4.23043 68.4686 5.58011C66.0881 6.24488 64.1313 7.796 62.9209 9.93131C61.7105 12.0666 61.4079 14.5444 62.0736 16.9214L62.82 19.6208C64.1111 24.2339 65.3417 27.8196 68.3072 28.5045C71.5551 29.2498 75.9327 30.6599 76.4774 34.1449C76.8607 36.522 75.1459 38.5163 73.4716 39.5839L67.0564 44.9222C62.1946 48.9712 59.915 55.2966 61.0851 61.5011L65.4829 73.064L73.3707 69.1358C73.8145 68.9142 74.218 68.8135 74.6013 68.8135Z" fill="black"/>
<path d="M78.5352 74.051C72.0393 74.051 66.7539 68.7731 66.7539 62.2866C66.7539 60.8362 67.924 59.6678 69.3764 59.6678C70.8289 59.6678 71.999 60.8362 71.999 62.2866C71.999 65.8925 74.9241 68.8336 78.5352 68.8336C80.4718 68.8336 82.2874 67.9875 83.5382 66.5169C84.4661 65.409 86.1204 65.268 87.2299 66.2148C88.3394 67.1414 88.4806 68.7933 87.5527 69.9012C85.2932 72.52 82.0252 74.051 78.5352 74.051Z" fill="black"/>
<path d="M69.114 112.426C69.1947 114.763 67.7423 116.858 65.5635 117.583C63.4251 118.308 62.4165 120.806 63.4251 122.861L66.7538 129.65L71.9988 156.381H116.501L114.605 142.824C114.161 139.601 114.302 136.338 114.988 133.175C116.723 125.178 117.167 117.482 117.147 111.52C117.127 106.846 116.421 102.233 115.069 97.7811L69.114 112.426Z" fill="#E3000B"/>
<path d="M116.501 159H71.9988C70.7481 159 69.6789 158.114 69.4368 156.885L64.2724 130.476L61.1052 123.989C60.2983 122.317 60.2378 120.383 60.9438 118.671C61.6499 116.979 63.0419 115.669 64.7566 115.085C65.846 114.723 66.5722 113.655 66.5319 112.487C66.4915 111.318 67.2379 110.271 68.3475 109.908L114.302 95.2832C114.968 95.0818 115.694 95.1422 116.32 95.4645C116.945 95.7868 117.409 96.3509 117.611 97.0156C119.043 101.75 119.79 106.625 119.81 111.499C119.83 119.336 119.084 126.809 117.591 133.719C116.945 136.66 116.824 139.601 117.228 142.461L119.124 156.019C119.225 156.764 119.003 157.53 118.499 158.094C117.974 158.678 117.248 159 116.501 159ZM74.1372 153.783H113.475L112.003 143.207C111.519 139.722 111.66 136.176 112.426 132.631C113.838 126.104 114.545 119.013 114.524 111.54C114.504 108.035 114.081 104.55 113.253 101.105L71.5349 114.38C70.9297 116.999 69.0535 119.154 66.4108 120.041C66.0074 120.182 65.8258 120.504 65.7451 120.685C65.6644 120.887 65.5635 121.27 65.7854 121.713L69.1141 128.501C69.2149 128.703 69.2956 128.924 69.336 129.146L74.1372 153.783Z" fill="black"/>
<path d="M112.648 156.945C111.902 156.945 111.155 156.623 110.631 155.998C99.8582 143.025 96.9936 121.048 96.8927 120.121C96.7111 118.691 97.7198 117.382 99.1723 117.2C100.645 117.019 101.916 118.046 102.097 119.477C102.118 119.698 104.902 140.89 114.686 152.675C115.614 153.783 115.452 155.434 114.343 156.361C113.818 156.744 113.233 156.945 112.648 156.945Z" fill="black"/>
<path d="M81.7224 157.227C81.6619 157.227 81.6216 157.227 81.5611 157.227C80.1086 157.147 79.0192 155.898 79.0999 154.467C79.6648 144.838 81.1173 135.471 81.1778 135.068C81.3997 133.638 82.7311 132.671 84.1634 132.893C85.5957 133.114 86.5641 134.444 86.3422 135.874C86.322 135.975 84.8695 145.402 84.3248 154.77C84.2441 156.16 83.0942 157.227 81.7224 157.227Z" fill="black"/>
<path d="M68.0649 130.254C66.6124 130.254 65.4424 129.086 65.4424 127.635C65.4424 126.205 66.5923 125.037 68.0448 125.016C68.186 125.016 72.8258 124.815 79.705 120.222C80.9154 119.416 82.5292 119.739 83.3362 120.947C84.1431 122.156 83.8203 123.767 82.6099 124.573C74.3389 130.093 68.6903 130.254 68.0649 130.254Z" fill="black"/>
<path d="M98.5068 68.5717C96.7718 68.5717 94.9361 68.1688 93.0801 67.2421C91.789 66.5975 91.2645 65.0262 91.9101 63.737C92.5556 62.4478 94.1291 61.924 95.4202 62.5686C98.8295 64.2608 101.856 62.9312 103.207 60.9772C104.034 59.7887 105.648 59.4865 106.859 60.3124C108.049 61.1384 108.351 62.7701 107.524 63.9586C105.668 66.5975 102.32 68.5717 98.5068 68.5717Z" fill="black"/>
<path d="M104.72 114.561C103.711 114.561 102.763 113.977 102.339 113.01C101.754 111.701 102.339 110.15 103.651 109.566L115.392 104.308C116.703 103.724 118.256 104.308 118.841 105.617C119.426 106.927 118.841 108.478 117.53 109.062L105.789 114.32C105.446 114.501 105.083 114.561 104.72 114.561Z" fill="black"/>
</g>
<defs>
<clipPath id="clip0">
<rect width="121" height="159" fill="white"/>
</clipPath>
</defs>
</svg>
