<svg width="40" height="40" viewBox="0 0 40 40" fill="none" xmlns="http://www.w3.org/2000/svg">
<path d="M29.9929 0H10.0735C4.59482 0 0.0979004 4.49692 0.0979004 10.0072V29.9267C0.0979004 35.4053 4.59482 39.9022 10.0735 39.9022H29.9929C35.5032 39.9022 40.0001 35.4053 40.0001 29.895V10.0072C40.0001 4.49692 35.5032 0 29.9929 0ZM22.0441 25.4931C20.4607 25.4931 18.9406 24.6697 18.4339 23.7196C18.4339 23.7196 17.5789 27.0132 17.3889 27.6465C16.7555 29.895 14.8554 32.1434 14.7287 32.3335C14.6337 32.4601 14.412 32.4285 14.3804 32.2384C14.3487 31.9534 13.8737 29.1033 14.412 26.7915C14.697 25.6197 16.3121 19.001 16.3121 19.001C16.3121 19.001 15.8371 18.0827 15.8371 16.7526C15.8371 14.6308 17.1038 13.0474 18.6873 13.0474C20.0173 13.0474 20.6824 14.0291 20.6824 15.2008C20.6824 16.4992 19.8273 18.4627 19.384 20.2678C19.0039 21.7879 20.1757 23.0229 21.7274 23.0229C24.5142 23.0229 26.4144 19.5394 26.4144 15.4225C26.4144 12.2873 24.2292 9.94388 20.2707 9.94388C15.8054 9.94388 12.9869 13.1741 12.9869 16.7843C12.9869 18.0193 13.367 18.906 13.9687 19.6027C14.2537 19.9194 14.2854 20.0461 14.1903 20.3945C14.127 20.6478 13.9687 21.2812 13.8737 21.5345C13.7787 21.8829 13.462 22.0412 13.1453 21.8829C11.0868 21.0595 10.1368 18.8744 10.1368 16.4042C10.1368 12.3507 13.6837 7.47375 20.6824 7.47375C26.3193 7.47375 30.0246 11.4323 30.0246 15.6759C29.9929 21.3128 26.7944 25.4931 22.0441 25.4931Z" fill="black"/>
</svg>
