<svg width="40" height="40" viewBox="0 0 40 40" fill="none" xmlns="http://www.w3.org/2000/svg">
<path d="M26.0761 0H13.8261C2.64685 0 0 2.64685 0 13.8261V26.0761C0 37.2554 2.64685 39.9022 13.8261 39.9022H26.0761C37.2554 39.9022 39.9022 37.2554 39.9022 26.0761V13.8261C39.9022 2.64685 37.2271 0 26.0761 0ZM32.2144 28.4686H29.3148C28.2175 28.4686 27.8783 27.5957 25.9065 25.5973C24.189 23.9347 23.4292 23.7102 23.0069 23.7102C22.4151 23.7102 22.2455 23.8798 22.2455 24.6961V27.3147C22.2455 28.0197 22.021 28.442 20.1623 28.442C17.0931 28.442 13.6848 26.5832 11.2923 23.1183C7.68782 18.0508 6.70024 14.2484 6.70024 13.4603C6.70024 13.038 6.86983 12.644 7.68616 12.644H10.5857C11.3173 12.644 11.5999 12.9815 11.8825 13.7696C13.3174 17.9094 15.7115 21.5422 16.6974 21.5422C17.0632 21.5422 17.2328 21.3726 17.2328 20.4449V16.1621C17.1197 14.1902 16.0773 14.0223 16.0773 13.319C16.0773 12.9799 16.3599 12.6423 16.8088 12.6423H21.371C21.9911 12.6423 22.2156 12.9799 22.2156 13.7114V19.4856C22.2156 20.1041 22.4982 20.3302 22.6661 20.3302C23.0319 20.3302 23.3428 20.1041 24.0178 19.429C26.1027 17.0914 27.594 13.4869 27.594 13.4869C27.7919 13.0646 28.1294 12.6706 28.8626 12.6706H31.7622C32.635 12.6706 32.8329 13.1195 32.635 13.7397C32.2692 15.4305 28.7213 20.4416 28.7213 20.4416C28.412 20.9487 28.299 21.1731 28.7213 21.7384C29.0305 22.1607 30.0447 23.0335 30.7214 23.8216C31.96 25.2298 32.916 26.4119 33.1704 27.2299C33.453 28.0446 33.029 28.4669 32.2127 28.4669L32.2144 28.4686Z" fill="black"/>
</svg>
